# xmcd CD database file
# Copyright (C) 1997 Ti Kan
#
# Track frame offsets:
#  180
#  19888
#  46412
#  71906
#  93630
#  114229
#  137235
#  164546
#  183490
#  217145
#  248797
#  274436
#  290613
#
# Disc length: 4447 seconds
#
# Revision: 1
# Processed by: cddbd v1.4b41PL1 Copyright (c) Steve Scherf et al.
# Submitted via: CDWizzard Release:4.30
#
DISCID=d4115d0d
DTITLE=Fields, Richards "Dimples" - Baby Makin' Music
DYEAR=1900
DGENRE=
TTITLE0=Baby's got it goin' On
TTITLE1=Circle you with love
TTITLE2=I wanna sleep in your body Tonight!
TTITLE3=At this Moment
TTITLE4=Why am I still in love with You?
TTITLE5=A piece of my heart
TTITLE6=Jazzy Lady
TTITLE7=Sincerely
TTITLE8=She's got papers on Me
TTITLE9=If it ain't one thing, it's Another
TTITLE10=Takin' Applications
TTITLE11=Moody's Mood for Love
TTITLE12=I can't live with or without You
EXTD=
EXTT0=
EXTT1=
EXTT2=
EXTT3=
EXTT4=
EXTT5=
EXTT6=
EXTT7=
EXTT8=
EXTT9=
EXTT10=
EXTT11=
EXTT12=
PLAYORDER=
